<svg width="119" height="18" viewBox="0 0 119 18" fill="none" xmlns="http://www.w3.org/2000/svg">
<path opacity="0.7" d="M5.87402 17.5156C8.07861 17.5156 9.86572 15.7432 9.86572 13.5386C9.86572 12.4033 9.41162 11.4072 8.53271 10.6016C8.37891 10.4624 8.34229 10.3745 8.34229 10.1694L8.35693 3.73877C8.35693 2.11279 7.35352 1.02148 5.87402 1.02148C4.38721 1.02148 3.38379 2.11279 3.38379 3.73877L3.39111 10.1694C3.39111 10.3745 3.36182 10.4624 3.20068 10.6016C2.32178 11.3999 1.86768 12.4033 1.86768 13.5386C1.86768 15.7432 3.65479 17.5156 5.87402 17.5156ZM5.87402 16.2632C4.35791 16.2632 3.13477 15.0327 3.13477 13.5239C3.13477 12.5938 3.56689 11.7808 4.34326 11.2681C4.56299 11.1143 4.65088 10.9824 4.65088 10.6821V3.79004C4.65088 2.87451 5.14893 2.28857 5.87402 2.28857C6.5918 2.28857 7.08252 2.87451 7.08252 3.79004V10.6821C7.08252 10.9824 7.17041 11.1143 7.39746 11.2681C8.1665 11.7808 8.60596 12.5938 8.60596 13.5239C8.60596 15.0327 7.38281 16.2632 5.87402 16.2632ZM9.74121 3.87061H11.3525C11.6235 3.87061 11.8066 3.66553 11.8066 3.42383C11.8066 3.18213 11.6235 2.97705 11.3525 2.97705H9.74121C9.47021 2.97705 9.28711 3.18213 9.28711 3.42383C9.28711 3.66553 9.47021 3.87061 9.74121 3.87061ZM9.74121 5.90674H11.3525C11.6235 5.90674 11.8066 5.70166 11.8066 5.45996C11.8066 5.21826 11.6235 5.01318 11.3525 5.01318H9.74121C9.47021 5.01318 9.28711 5.21826 9.28711 5.45996C9.28711 5.70166 9.47021 5.90674 9.74121 5.90674ZM5.8667 15.2744C6.84082 15.2744 7.62451 14.4907 7.62451 13.5166C7.62451 12.8354 7.24365 12.2788 6.67969 11.9785C6.44531 11.8467 6.37207 11.7588 6.37207 11.4072V7.63525C6.37207 7.27637 6.14502 7.04932 5.8667 7.04932C5.58838 7.04932 5.36865 7.27637 5.36865 7.63525V11.4072C5.36865 11.7588 5.28809 11.8467 5.05371 11.9785C4.49707 12.2788 4.11621 12.8354 4.11621 13.5166C4.11621 14.4907 4.8999 15.2744 5.8667 15.2744ZM9.74121 7.94287H11.3525C11.6235 7.94287 11.8066 7.73779 11.8066 7.49609C11.8066 7.25439 11.6235 7.04932 11.3525 7.04932H9.74121C9.47021 7.04932 9.28711 7.25439 9.28711 7.49609C9.28711 7.73779 9.47021 7.94287 9.74121 7.94287ZM9.74121 9.98633H11.3525C11.6235 9.98633 11.8066 9.78125 11.8066 9.53955C11.8066 9.29785 11.6235 9.09277 11.3525 9.09277H9.74121C9.47021 9.09277 9.28711 9.29785 9.28711 9.53955C9.28711 9.78125 9.47021 9.98633 9.74121 9.98633Z" fill="white"/>
<path opacity="0.7" d="M20.5962 14H22.2368V4.84473H25.4668V3.43115H17.3589V4.84473H20.5962V14ZM26.8071 14H33.5161V12.5864H28.4478V9.30518H33.2451V7.92822H28.4478V4.84473H33.5161V3.43115H26.8071V14ZM35.2007 14H36.6948V6.19971H36.7461L39.9321 14H41.1479L44.334 6.19971H44.3853V14H45.8794V3.43115H43.9897L40.562 11.8687H40.5181L37.0977 3.43115H35.2007V14ZM47.8276 14H49.4683V10.3892H51.7607C53.8335 10.3892 55.269 8.97559 55.269 6.91016V6.89551C55.269 4.82275 53.8335 3.43115 51.7607 3.43115H47.8276V14ZM51.3506 4.81543C52.7788 4.81543 53.5991 5.58447 53.5991 6.90283V6.91748C53.5991 8.24316 52.7788 9.01221 51.3506 9.01221H49.4683V4.81543H51.3506ZM56.7046 14H63.4136V12.5864H58.3452V9.30518H63.1426V7.92822H58.3452V4.84473H63.4136V3.43115H56.7046V14ZM65.0981 14H66.7388V9.94238H68.9946L71.1479 14H73.0376L70.6719 9.69336C71.939 9.26123 72.7227 8.11865 72.7227 6.68311V6.66846C72.7227 4.68359 71.3604 3.43115 69.1997 3.43115H65.0981V14ZM66.7388 8.59473V4.80811H68.9946C70.2544 4.80811 71.0308 5.51123 71.0308 6.68311V6.69775C71.0308 7.89893 70.3057 8.59473 69.0386 8.59473H66.7388ZM73.5283 14H75.2495L76.2236 11.1436H80.2959L81.2627 14H82.9839L79.146 3.43115H77.3735L73.5283 14ZM78.2451 5.18164H78.2744L79.8491 9.8252H76.6631L78.2451 5.18164ZM85.3276 14H86.9683V4.84473H90.1982V3.43115H82.0903V4.84473H85.3276V14ZM95.8232 14.1758C98.4819 14.1758 100.093 12.6011 100.093 10.2866V3.43115H98.46V10.1548C98.46 11.6929 97.5078 12.7256 95.8232 12.7256C94.1387 12.7256 93.1792 11.6929 93.1792 10.1548V3.43115H91.5386V10.2866C91.5386 12.6011 93.1719 14.1758 95.8232 14.1758ZM102.042 14H103.682V9.94238H105.938L108.091 14H109.981L107.615 9.69336C108.882 9.26123 109.666 8.11865 109.666 6.68311V6.66846C109.666 4.68359 108.304 3.43115 106.143 3.43115H102.042V14ZM103.682 8.59473V4.80811H105.938C107.198 4.80811 107.974 5.51123 107.974 6.68311V6.69775C107.974 7.89893 107.249 8.59473 105.982 8.59473H103.682ZM111.255 14H117.964V12.5864H112.896V9.30518H117.693V7.92822H112.896V4.84473H117.964V3.43115H111.255V14Z" fill="white"/>
</svg>
