<svg width="94" height="18" viewBox="0 0 94 18" fill="none" xmlns="http://www.w3.org/2000/svg">
<path opacity="0.7" d="M4.91455 6.84424C8.2251 6.84424 9.98291 4.07568 13.0151 4.07568C13.7329 4.07568 14.3481 4.23682 15.0806 4.6543C15.4248 4.85205 15.7617 4.72754 15.9448 4.47119C16.1646 4.16357 16.1206 3.70947 15.6738 3.4458C14.8389 2.96973 13.9673 2.73535 13.0151 2.73535C9.66064 2.73535 7.91748 5.50391 4.91455 5.50391C4.2041 5.50391 3.58154 5.34277 2.85645 4.91797C2.51221 4.72754 2.16064 4.85205 1.98486 5.11572C1.77979 5.43066 1.82373 5.87744 2.26318 6.12646C3.09814 6.60986 3.96973 6.84424 4.91455 6.84424ZM14.5386 15.6846C16.3403 15.6846 17.7759 14.2783 17.7759 12.5205C17.7759 11.5537 17.2925 10.6016 16.8896 9.84717L15.2637 6.81494C15.0806 6.4707 14.8828 6.31689 14.5386 6.31689C14.1943 6.31689 14.0039 6.47803 13.8208 6.81494L12.1948 9.84717C11.792 10.6016 11.3086 11.5537 11.3086 12.5205C11.3086 14.2783 12.7515 15.6846 14.5386 15.6846ZM4.9292 10.77C7.76367 10.77 9.49219 8.66797 11.9092 8.16992C12.1729 7.67188 12.4512 7.17383 12.7148 6.67578C9.48486 6.85889 7.85156 9.42969 4.9292 9.42969C4.21875 9.42969 3.59619 9.26855 2.86377 8.85107C2.51953 8.65332 2.17529 8.77783 1.99951 9.0415C1.79443 9.35645 1.83838 9.80322 2.27051 10.0522C3.10547 10.5356 3.97705 10.77 4.9292 10.77ZM14.5386 14.5713C13.3667 14.5713 12.4219 13.6631 12.4219 12.5205C12.4219 11.8174 12.7881 11.1289 13.1909 10.3745L14.4727 7.98682C14.5093 7.91357 14.5825 7.91357 14.6191 7.98682L15.8936 10.3745C16.2891 11.1289 16.6626 11.8174 16.6626 12.5205C16.6626 13.6631 15.7251 14.5713 14.5386 14.5713ZM4.91455 14.6958C7.10449 14.6958 8.62793 13.4507 10.3125 12.6523C10.2612 12.2495 10.3491 11.6343 10.5029 11.1362C8.57666 11.9272 7.0752 13.3555 4.91455 13.3555C4.2041 13.3555 3.58154 13.1943 2.85645 12.7769C2.51221 12.5791 2.16064 12.7036 1.98486 12.9746C1.77979 13.2822 1.82373 13.729 2.26318 13.9854C3.09814 14.4614 3.96973 14.6958 4.91455 14.6958Z" fill="white"/>
<path opacity="0.7" d="M24.9741 14H26.6147V9.31982H32.042V14H33.6826V3.43115H32.042V7.89893H26.6147V3.43115H24.9741V14ZM39.9082 14.1758C42.5669 14.1758 44.1782 12.6011 44.1782 10.2866V3.43115H42.5449V10.1548C42.5449 11.6929 41.5928 12.7256 39.9082 12.7256C38.2236 12.7256 37.2642 11.6929 37.2642 10.1548V3.43115H35.6235V10.2866C35.6235 12.6011 37.2568 14.1758 39.9082 14.1758ZM46.1265 14H47.6206V6.19971H47.6719L50.8579 14H52.0737L55.2598 6.19971H55.311V14H56.8052V3.43115H54.9155L51.4878 11.8687H51.4438L48.0234 3.43115H46.1265V14ZM58.7534 14H60.394V3.43115H58.7534V14ZM62.3423 14H66.0703C69.2197 14 71.0728 12.0371 71.0728 8.69727V8.68262C71.0728 5.35742 69.2051 3.43115 66.0703 3.43115H62.3423V14ZM63.9829 12.5791V4.84473H65.9165C68.1431 4.84473 69.3955 6.21436 69.3955 8.69727V8.71191C69.3955 11.2095 68.1577 12.5791 65.9165 12.5791H63.9829ZM72.6401 14H74.2808V3.43115H72.6401V14ZM78.8511 14H80.4917V4.84473H83.7217V3.43115H75.6138V4.84473H78.8511V14ZM87.999 14H89.6396V9.67139L93.3677 3.43115H91.5439L88.8486 8.09668H88.7974L86.1021 3.43115H84.2783L87.999 9.67139V14Z" fill="white"/>
</svg>
