<svg width="91" height="18" viewBox="0 0 91 18" fill="none" xmlns="http://www.w3.org/2000/svg">
<path opacity="0.3" d="M5.87402 17.5156C8.07861 17.5156 9.86572 15.7432 9.86572 13.5386C9.86572 12.4033 9.41162 11.4072 8.53271 10.6016C8.37891 10.4624 8.34229 10.3745 8.34229 10.1694L8.35693 3.73877C8.35693 2.11279 7.35352 1.02148 5.87402 1.02148C4.38721 1.02148 3.38379 2.11279 3.38379 3.73877L3.39111 10.1694C3.39111 10.3745 3.36182 10.4624 3.20068 10.6016C2.32178 11.3999 1.86768 12.4033 1.86768 13.5386C1.86768 15.7432 3.65479 17.5156 5.87402 17.5156ZM5.87402 16.2632C4.35791 16.2632 3.13477 15.0327 3.13477 13.5239C3.13477 12.5938 3.56689 11.7808 4.34326 11.2681C4.56299 11.1143 4.65088 10.9824 4.65088 10.6821V3.79004C4.65088 2.87451 5.14893 2.28857 5.87402 2.28857C6.5918 2.28857 7.08252 2.87451 7.08252 3.79004V10.6821C7.08252 10.9824 7.17041 11.1143 7.39746 11.2681C8.1665 11.7808 8.60596 12.5938 8.60596 13.5239C8.60596 15.0327 7.38281 16.2632 5.87402 16.2632ZM9.74121 3.87061H11.3525C11.6235 3.87061 11.8066 3.66553 11.8066 3.42383C11.8066 3.18213 11.6235 2.97705 11.3525 2.97705H9.74121C9.47021 2.97705 9.28711 3.18213 9.28711 3.42383C9.28711 3.66553 9.47021 3.87061 9.74121 3.87061ZM9.74121 5.90674H11.3525C11.6235 5.90674 11.8066 5.70166 11.8066 5.45996C11.8066 5.21826 11.6235 5.01318 11.3525 5.01318H9.74121C9.47021 5.01318 9.28711 5.21826 9.28711 5.45996C9.28711 5.70166 9.47021 5.90674 9.74121 5.90674ZM5.8667 15.2744C6.84082 15.2744 7.62451 14.4907 7.62451 13.5166C7.62451 12.8354 7.24365 12.2788 6.67969 11.9785C6.44531 11.8467 6.37207 11.7588 6.37207 11.4072V7.63525C6.37207 7.27637 6.14502 7.04932 5.8667 7.04932C5.58838 7.04932 5.36865 7.27637 5.36865 7.63525V11.4072C5.36865 11.7588 5.28809 11.8467 5.05371 11.9785C4.49707 12.2788 4.11621 12.8354 4.11621 13.5166C4.11621 14.4907 4.8999 15.2744 5.8667 15.2744ZM9.74121 7.94287H11.3525C11.6235 7.94287 11.8066 7.73779 11.8066 7.49609C11.8066 7.25439 11.6235 7.04932 11.3525 7.04932H9.74121C9.47021 7.04932 9.28711 7.25439 9.28711 7.49609C9.28711 7.73779 9.47021 7.94287 9.74121 7.94287ZM9.74121 9.98633H11.3525C11.6235 9.98633 11.8066 9.78125 11.8066 9.53955C11.8066 9.29785 11.6235 9.09277 11.3525 9.09277H9.74121C9.47021 9.09277 9.28711 9.29785 9.28711 9.53955C9.28711 9.78125 9.47021 9.98633 9.74121 9.98633Z" fill="white"/>
<path opacity="0.3" d="M16.9741 14H18.6147V9.57617H23.1558V8.19189H18.6147V4.84473H23.5732V3.43115H16.9741V14ZM25.0015 14H31.7104V12.5864H26.6421V9.30518H31.4395V7.92822H26.6421V4.84473H31.7104V3.43115H25.0015V14ZM33.395 14H40.104V12.5864H35.0356V9.30518H39.833V7.92822H35.0356V4.84473H40.104V3.43115H33.395V14ZM41.7886 14H48.3511V12.5864H43.4292V3.43115H41.7886V14ZM53.3608 14.1758C55.8657 14.1758 57.3892 12.9526 57.3892 11.0264V11.019C57.3892 9.38574 56.4517 8.49951 54.269 8.03809L53.1118 7.79639C51.7935 7.51074 51.1929 7.02734 51.1929 6.23633V6.229C51.1929 5.30615 52.0278 4.68359 53.3389 4.67627C54.5913 4.67627 55.4409 5.26953 55.5874 6.25098L55.5947 6.35352H57.1914L57.1841 6.229C57.0742 4.45654 55.5654 3.25537 53.3608 3.25537C51.127 3.25537 49.5376 4.49316 49.5303 6.29492V6.30225C49.5303 7.86963 50.5337 8.82178 52.6064 9.26123L53.7563 9.50293C55.1553 9.81055 55.7339 10.272 55.7339 11.1216V11.1289C55.7339 12.1177 54.8403 12.7549 53.4268 12.7549C52.0132 12.7549 51.0391 12.147 50.8926 11.1729L50.8779 11.0776H49.2812L49.2886 11.1875C49.4204 13.0479 50.9878 14.1758 53.3608 14.1758ZM61.9155 14H68.478V12.5864H63.5562V3.43115H61.9155V14ZM69.8843 14H71.5249V3.43115H69.8843V14ZM73.4731 14H75.1138V10.4697L76.1904 9.22461L79.6841 14H81.7129L77.3623 8.104L81.3687 3.43115H79.4204L75.1577 8.49219H75.1138V3.43115H73.4731V14ZM82.7749 14H89.4839V12.5864H84.4155V9.30518H89.2129V7.92822H84.4155V4.84473H89.4839V3.43115H82.7749V14Z" fill="white"/>
</svg>
