<svg width="18" height="18" viewBox="0 0 18 18" fill="none" xmlns="http://www.w3.org/2000/svg">
<path opacity="1" d="M4.27002 15.5601H14.3481C15.9302 15.5601 16.7505 14.7397 16.7505 13.1797V4.26611C16.7505 2.69873 15.9302 1.88574 14.3481 1.88574H4.27002C2.68799 1.88574 1.86768 2.69873 1.86768 4.26611V13.1797C1.86768 14.7471 2.68799 15.5601 4.27002 15.5601ZM4.24805 14.1245C3.64014 14.1245 3.30322 13.8022 3.30322 13.165V6.39746C3.30322 5.75293 3.64014 5.43799 4.24805 5.43799H14.3555C14.9707 5.43799 15.3149 5.75293 15.3149 6.39746V13.165C15.3149 13.8022 14.9707 14.1245 14.3555 14.1245H4.24805ZM7.89551 7.97949H8.32764C8.59131 7.97949 8.6792 7.89893 8.6792 7.63525V7.21045C8.6792 6.94678 8.59131 6.86621 8.32764 6.86621H7.89551C7.63916 6.86621 7.55127 6.94678 7.55127 7.21045V7.63525C7.55127 7.89893 7.63916 7.97949 7.89551 7.97949ZM10.2979 7.97949H10.7227C10.9863 7.97949 11.0742 7.89893 11.0742 7.63525V7.21045C11.0742 6.94678 10.9863 6.86621 10.7227 6.86621H10.2979C10.0342 6.86621 9.94629 6.94678 9.94629 7.21045V7.63525C9.94629 7.89893 10.0342 7.97949 10.2979 7.97949ZM12.6929 7.97949H13.1177C13.3813 7.97949 13.4692 7.89893 13.4692 7.63525V7.21045C13.4692 6.94678 13.3813 6.86621 13.1177 6.86621H12.6929C12.4292 6.86621 12.3413 6.94678 12.3413 7.21045V7.63525C12.3413 7.89893 12.4292 7.97949 12.6929 7.97949ZM5.50049 10.3379H5.93262C6.19629 10.3379 6.28418 10.2573 6.28418 9.99365V9.56885C6.28418 9.30518 6.19629 9.22461 5.93262 9.22461H5.50049C5.24414 9.22461 5.15625 9.30518 5.15625 9.56885V9.99365C5.15625 10.2573 5.24414 10.3379 5.50049 10.3379ZM7.89551 10.3379H8.32764C8.59131 10.3379 8.6792 10.2573 8.6792 9.99365V9.56885C8.6792 9.30518 8.59131 9.22461 8.32764 9.22461H7.89551C7.63916 9.22461 7.55127 9.30518 7.55127 9.56885V9.99365C7.55127 10.2573 7.63916 10.3379 7.89551 10.3379ZM10.2979 10.3379H10.7227C10.9863 10.3379 11.0742 10.2573 11.0742 9.99365V9.56885C11.0742 9.30518 10.9863 9.22461 10.7227 9.22461H10.2979C10.0342 9.22461 9.94629 9.30518 9.94629 9.56885V9.99365C9.94629 10.2573 10.0342 10.3379 10.2979 10.3379ZM12.6929 10.3379H13.1177C13.3813 10.3379 13.4692 10.2573 13.4692 9.99365V9.56885C13.4692 9.30518 13.3813 9.22461 13.1177 9.22461H12.6929C12.4292 9.22461 12.3413 9.30518 12.3413 9.56885V9.99365C12.3413 10.2573 12.4292 10.3379 12.6929 10.3379ZM5.50049 12.6963H5.93262C6.19629 12.6963 6.28418 12.6157 6.28418 12.3521V11.9272C6.28418 11.6636 6.19629 11.583 5.93262 11.583H5.50049C5.24414 11.583 5.15625 11.6636 5.15625 11.9272V12.3521C5.15625 12.6157 5.24414 12.6963 5.50049 12.6963ZM7.89551 12.6963H8.32764C8.59131 12.6963 8.6792 12.6157 8.6792 12.3521V11.9272C8.6792 11.6636 8.59131 11.583 8.32764 11.583H7.89551C7.63916 11.583 7.55127 11.6636 7.55127 11.9272V12.3521C7.55127 12.6157 7.63916 12.6963 7.89551 12.6963ZM10.2979 12.6963H10.7227C10.9863 12.6963 11.0742 12.6157 11.0742 12.3521V11.9272C11.0742 11.6636 10.9863 11.583 10.7227 11.583H10.2979C10.0342 11.583 9.94629 11.6636 9.94629 11.9272V12.3521C9.94629 12.6157 10.0342 12.6963 10.2979 12.6963Z" fill="white"/>
</svg>
