<svg width="156" height="18" viewBox="0 0 156 18" fill="none" xmlns="http://www.w3.org/2000/svg">
<path opacity="0.3" d="M4.27002 15.5601H14.3481C15.9302 15.5601 16.7505 14.7397 16.7505 13.1797V4.26611C16.7505 2.69873 15.9302 1.88574 14.3481 1.88574H4.27002C2.68799 1.88574 1.86768 2.69873 1.86768 4.26611V13.1797C1.86768 14.7471 2.68799 15.5601 4.27002 15.5601ZM4.24805 14.1245C3.64014 14.1245 3.30322 13.8022 3.30322 13.165V6.39746C3.30322 5.75293 3.64014 5.43799 4.24805 5.43799H14.3555C14.9707 5.43799 15.3149 5.75293 15.3149 6.39746V13.165C15.3149 13.8022 14.9707 14.1245 14.3555 14.1245H4.24805ZM7.89551 7.97949H8.32764C8.59131 7.97949 8.6792 7.89893 8.6792 7.63525V7.21045C8.6792 6.94678 8.59131 6.86621 8.32764 6.86621H7.89551C7.63916 6.86621 7.55127 6.94678 7.55127 7.21045V7.63525C7.55127 7.89893 7.63916 7.97949 7.89551 7.97949ZM10.2979 7.97949H10.7227C10.9863 7.97949 11.0742 7.89893 11.0742 7.63525V7.21045C11.0742 6.94678 10.9863 6.86621 10.7227 6.86621H10.2979C10.0342 6.86621 9.94629 6.94678 9.94629 7.21045V7.63525C9.94629 7.89893 10.0342 7.97949 10.2979 7.97949ZM12.6929 7.97949H13.1177C13.3813 7.97949 13.4692 7.89893 13.4692 7.63525V7.21045C13.4692 6.94678 13.3813 6.86621 13.1177 6.86621H12.6929C12.4292 6.86621 12.3413 6.94678 12.3413 7.21045V7.63525C12.3413 7.89893 12.4292 7.97949 12.6929 7.97949ZM5.50049 10.3379H5.93262C6.19629 10.3379 6.28418 10.2573 6.28418 9.99365V9.56885C6.28418 9.30518 6.19629 9.22461 5.93262 9.22461H5.50049C5.24414 9.22461 5.15625 9.30518 5.15625 9.56885V9.99365C5.15625 10.2573 5.24414 10.3379 5.50049 10.3379ZM7.89551 10.3379H8.32764C8.59131 10.3379 8.6792 10.2573 8.6792 9.99365V9.56885C8.6792 9.30518 8.59131 9.22461 8.32764 9.22461H7.89551C7.63916 9.22461 7.55127 9.30518 7.55127 9.56885V9.99365C7.55127 10.2573 7.63916 10.3379 7.89551 10.3379ZM10.2979 10.3379H10.7227C10.9863 10.3379 11.0742 10.2573 11.0742 9.99365V9.56885C11.0742 9.30518 10.9863 9.22461 10.7227 9.22461H10.2979C10.0342 9.22461 9.94629 9.30518 9.94629 9.56885V9.99365C9.94629 10.2573 10.0342 10.3379 10.2979 10.3379ZM12.6929 10.3379H13.1177C13.3813 10.3379 13.4692 10.2573 13.4692 9.99365V9.56885C13.4692 9.30518 13.3813 9.22461 13.1177 9.22461H12.6929C12.4292 9.22461 12.3413 9.30518 12.3413 9.56885V9.99365C12.3413 10.2573 12.4292 10.3379 12.6929 10.3379ZM5.50049 12.6963H5.93262C6.19629 12.6963 6.28418 12.6157 6.28418 12.3521V11.9272C6.28418 11.6636 6.19629 11.583 5.93262 11.583H5.50049C5.24414 11.583 5.15625 11.6636 5.15625 11.9272V12.3521C5.15625 12.6157 5.24414 12.6963 5.50049 12.6963ZM7.89551 12.6963H8.32764C8.59131 12.6963 8.6792 12.6157 8.6792 12.3521V11.9272C8.6792 11.6636 8.59131 11.583 8.32764 11.583H7.89551C7.63916 11.583 7.55127 11.6636 7.55127 11.9272V12.3521C7.55127 12.6157 7.63916 12.6963 7.89551 12.6963ZM10.2979 12.6963H10.7227C10.9863 12.6963 11.0742 12.6157 11.0742 12.3521V11.9272C11.0742 11.6636 10.9863 11.583 10.7227 11.583H10.2979C10.0342 11.583 9.94629 11.6636 9.94629 11.9272V12.3521C9.94629 12.6157 10.0342 12.6963 10.2979 12.6963Z" fill="white"/>
<path opacity="0.3" d="M27.4937 14H29.0977V3.43115H27.479L24.6958 5.40869V6.96143L27.457 5.05713H27.4937V14ZM35.5356 14.1758C38.0552 14.1758 39.5713 12.0737 39.5713 8.71924V8.70459C39.5713 5.3501 38.0552 3.25537 35.5356 3.25537C33.0088 3.25537 31.5 5.3501 31.5 8.70459V8.71924C31.5 12.0737 33.0088 14.1758 35.5356 14.1758ZM35.5356 12.8062C34.0269 12.8062 33.1553 11.2534 33.1553 8.71924V8.70459C33.1553 6.17041 34.0269 4.63232 35.5356 4.63232C37.0371 4.63232 37.916 6.17041 37.916 8.70459V8.71924C37.916 11.2534 37.0371 12.8062 35.5356 12.8062ZM41.1094 10.4258H45.8188V8.99756H41.1094V10.4258ZM47.6938 14H51.4219C54.5713 14 56.4243 12.0371 56.4243 8.69727V8.68262C56.4243 5.35742 54.5566 3.43115 51.4219 3.43115H47.6938V14ZM49.3345 12.5791V4.84473H51.2681C53.4946 4.84473 54.7471 6.21436 54.7471 8.69727V8.71191C54.7471 11.2095 53.5093 12.5791 51.2681 12.5791H49.3345ZM56.8564 14H58.5776L59.5518 11.1436H63.624L64.5908 14H66.312L62.4741 3.43115H60.7017L56.8564 14ZM61.5732 5.18164H61.6025L63.1772 9.8252H59.9912L61.5732 5.18164ZM69.0439 14H70.6846V9.67139L74.4126 3.43115H72.5889L69.8936 8.09668H69.8423L67.147 3.43115H65.3232L69.0439 9.67139V14ZM81.6782 14H83.3188V9.57617H87.8599V8.19189H83.3188V4.84473H88.2773V3.43115H81.6782V14ZM94.2759 14.1758C97.3301 14.1758 99.2271 12.0737 99.2271 8.71924V8.70459C99.2271 5.35742 97.3228 3.25537 94.2759 3.25537C91.2363 3.25537 89.3247 5.3501 89.3247 8.70459V8.71924C89.3247 12.0811 91.229 14.1758 94.2759 14.1758ZM94.2759 12.7256C92.269 12.7256 90.9946 11.1802 90.9946 8.71924V8.70459C90.9946 6.24365 92.2764 4.70557 94.2759 4.70557C96.2827 4.70557 97.5498 6.25098 97.5498 8.70459V8.71924C97.5498 11.1582 96.3047 12.7256 94.2759 12.7256ZM100.794 14H102.435V9.94238H104.691L106.844 14H108.734L106.368 9.69336C107.635 9.26123 108.419 8.11865 108.419 6.68311V6.66846C108.419 4.68359 107.057 3.43115 104.896 3.43115H100.794V14ZM102.435 8.59473V4.80811H104.691C105.951 4.80811 106.727 5.51123 106.727 6.68311V6.69775C106.727 7.89893 106.002 8.59473 104.735 8.59473H102.435ZM110.008 14H116.717V12.5864H111.649V9.30518H116.446V7.92822H111.649V4.84473H116.717V3.43115H110.008V14ZM122.921 14.1758C125.257 14.1758 127.008 12.7622 127.337 10.6602L127.345 10.5869H125.719L125.697 10.6528C125.301 11.9932 124.327 12.7256 122.921 12.7256C120.965 12.7256 119.698 11.1582 119.698 8.71191V8.70459C119.698 6.2583 120.958 4.70557 122.921 4.70557C124.342 4.70557 125.323 5.45996 125.675 6.69775L125.719 6.84424H127.345L127.33 6.77832C127 4.69092 125.25 3.25537 122.921 3.25537C119.925 3.25537 118.021 5.3501 118.021 8.70459V8.71191C118.021 12.0664 119.925 14.1758 122.921 14.1758ZM127.916 14H129.637L130.611 11.1436H134.684L135.65 14H137.372L133.534 3.43115H131.761L127.916 14ZM132.633 5.18164H132.662L134.237 9.8252H131.051L132.633 5.18164ZM142.059 14.1758C144.564 14.1758 146.087 12.9526 146.087 11.0264V11.019C146.087 9.38574 145.15 8.49951 142.967 8.03809L141.81 7.79639C140.492 7.51074 139.891 7.02734 139.891 6.23633V6.229C139.891 5.30615 140.726 4.68359 142.037 4.67627C143.29 4.67627 144.139 5.26953 144.286 6.25098L144.293 6.35352H145.89L145.882 6.229C145.772 4.45654 144.264 3.25537 142.059 3.25537C139.825 3.25537 138.236 4.49316 138.229 6.29492V6.30225C138.229 7.86963 139.232 8.82178 141.305 9.26123L142.455 9.50293C143.854 9.81055 144.432 10.272 144.432 11.1216V11.1289C144.432 12.1177 143.539 12.7549 142.125 12.7549C140.711 12.7549 139.737 12.147 139.591 11.1729L139.576 11.0776H137.979L137.987 11.1875C138.119 13.0479 139.686 14.1758 142.059 14.1758ZM149.896 14H151.537V4.84473H154.767V3.43115H146.659V4.84473H149.896V14Z" fill="white"/>
</svg>
